<svg width="120" height="42" viewBox="0 0 120 42" fill="none" xmlns="http://www.w3.org/2000/svg">
<g filter="url(#filter0_d_275_3015)">
<path d="M77.0944 7.88304C77.0436 9.18929 76.9928 10.4955 76.9407 11.8018C75.4157 11.7341 73.8893 11.6781 72.3643 11.6338C71.1674 11.5986 70.2727 12.0193 70.2506 13.3047C70.2297 14.4859 70.2076 15.6671 70.1855 16.8484C72.0426 16.89 73.8997 16.9486 75.7569 17.0255C75.7074 18.3317 75.6579 19.638 75.6084 20.9442C73.776 20.8687 71.9436 20.8101 70.1112 20.7697C70.08 22.369 70.0474 23.9683 70.0149 25.5675C69.9888 26.8529 70.821 27.3101 71.954 27.3439C73.4009 27.3869 74.8465 27.4403 76.2934 27.5041C76.2374 28.7999 76.1814 30.0945 76.1241 31.3903C74.1537 31.303 72.1846 31.2353 70.2141 31.1884C65.2105 31.0882 65.122 27.9248 65.1324 24.652C65.1454 21.1174 65.1532 17.5829 65.1584 14.0496C65.1623 10.799 65.2548 7.55876 70.696 7.66685C72.8292 7.71634 74.9624 7.78927 77.097 7.88304H77.0944Z" fill="url(#paint0_linear_275_3015)" shape-rendering="crispEdges"/>
<path d="M77.0944 7.88304C77.0436 9.18929 76.9928 10.4955 76.9407 11.8018C75.4157 11.7341 73.8893 11.6781 72.3643 11.6338C71.1674 11.5986 70.2727 12.0193 70.2506 13.3047C70.2297 14.4859 70.2076 15.6671 70.1855 16.8484C72.0426 16.89 73.8997 16.9486 75.7569 17.0255C75.7074 18.3317 75.6579 19.638 75.6084 20.9442C73.776 20.8687 71.9436 20.8101 70.1112 20.7697C70.08 22.369 70.0474 23.9683 70.0149 25.5675C69.9888 26.8529 70.821 27.3101 71.954 27.3439C73.4009 27.3869 74.8465 27.4403 76.2934 27.5041C76.2374 28.7999 76.1814 30.0945 76.1241 31.3903C74.1537 31.303 72.1846 31.2353 70.2141 31.1884C65.2105 31.0882 65.122 27.9248 65.1324 24.652C65.1454 21.1174 65.1532 17.5829 65.1584 14.0496C65.1623 10.799 65.2548 7.55876 70.696 7.66685C72.8292 7.71634 74.9624 7.78927 77.097 7.88304H77.0944Z" fill="url(#paint1_linear_275_3015)" shape-rendering="crispEdges"/>
<path d="M70.2084 31.4336C68.9337 31.408 67.9509 31.1871 67.1966 30.8037C66.438 30.4181 65.9223 29.8739 65.5765 29.2253C64.8958 27.9482 64.8819 26.2722 64.8871 24.6512L64.8871 24.6511C64.9001 21.1168 64.9079 17.5824 64.9132 14.0493C64.9151 12.441 64.933 10.7457 65.6765 9.47486C66.4422 8.16606 67.9314 7.36661 70.7008 7.42163L70.7017 7.42165C72.8367 7.47118 74.9716 7.54417 77.1077 7.63801L77.1024 7.88335L77.3395 7.89257C77.2887 9.1988 77.2379 10.5052 77.1858 11.8116L77.176 12.0577L76.9298 12.0468C75.406 11.9791 73.8809 11.9232 72.3572 11.879L72.3571 11.8789C71.7819 11.8621 71.3208 11.9572 71.0069 12.1754C70.7077 12.3835 70.5058 12.7291 70.4958 13.3089L70.4958 13.309C70.4764 14.409 70.4559 15.5089 70.4353 16.6087C72.2125 16.65 73.9897 16.7069 75.767 16.7804L76.0112 16.7905L76.002 17.0348L75.8535 20.9535L75.8442 21.1994L75.5983 21.1893C73.8494 21.1172 72.1005 21.0605 70.3516 21.0204C70.3219 22.5379 70.291 24.0552 70.2601 25.5725C70.2482 26.157 70.4289 26.5127 70.7037 26.7341C70.9904 26.9652 71.4193 27.0826 71.9614 27.0988C73.4094 27.1418 74.8562 27.1952 76.3042 27.2591L76.5491 27.2699L76.5385 27.5147C76.4825 28.8105 76.4265 30.1052 76.3692 31.4011L76.3583 31.6462L76.1133 31.6353C74.1445 31.5481 72.1771 31.4805 70.2084 31.4336ZM70.2084 31.4336C70.2084 31.4336 70.2083 31.4336 70.2083 31.4336L70.2141 31.1884L70.2092 31.4337C70.2089 31.4337 70.2087 31.4336 70.2084 31.4336Z" stroke="#B99410" stroke-opacity="0.4" stroke-width="0.49054" shape-rendering="crispEdges"/>
</g>
<g filter="url(#filter1_d_275_3015)">
<path d="M90.9534 26.8217C91.0081 26.8269 91.0615 26.8308 91.1162 26.836C91.3285 20.8713 91.5095 14.904 91.6593 8.93533C93.2729 9.07338 94.8865 9.22315 96.4988 9.38725C95.7525 17.1948 94.9855 24.9997 94.1988 32.802C92.231 32.6015 90.2619 32.4231 88.2927 32.2642C86.8719 26.1705 85.3195 20.086 83.6356 14.0132C83.5796 14.0093 83.5222 14.0067 83.4662 14.0027C83.4558 19.9727 83.4142 25.9413 83.3412 31.9086C81.85 31.8149 80.3589 31.7328 78.8677 31.6625C79.231 23.8289 79.5749 15.994 79.8978 8.15784C82.2629 8.26854 84.6266 8.40658 86.9904 8.57198C88.4295 14.6474 89.75 20.7319 90.9521 26.8217H90.9534Z" fill="url(#paint2_linear_275_3015)" shape-rendering="crispEdges"/>
<path d="M90.9534 26.8217C91.0081 26.8269 91.0615 26.8308 91.1162 26.836C91.3285 20.8713 91.5095 14.904 91.6593 8.93533C93.2729 9.07338 94.8865 9.22315 96.4988 9.38725C95.7525 17.1948 94.9855 24.9997 94.1988 32.802C92.231 32.6015 90.2619 32.4231 88.2927 32.2642C86.8719 26.1705 85.3195 20.086 83.6356 14.0132C83.5796 14.0093 83.5222 14.0067 83.4662 14.0027C83.4558 19.9727 83.4142 25.9413 83.3412 31.9086C81.85 31.8149 80.3589 31.7328 78.8677 31.6625C79.231 23.8289 79.5749 15.994 79.8978 8.15784C82.2629 8.26854 84.6266 8.40658 86.9904 8.57198C88.4295 14.6474 89.75 20.7319 90.9521 26.8217H90.9534Z" fill="url(#paint3_linear_275_3015)" shape-rendering="crispEdges"/>
<path d="M83.709 15.2015C85.273 20.8982 86.7213 26.605 88.0539 32.3199L88.0945 32.4942L88.273 32.5086C90.2405 32.6674 92.208 32.8457 94.174 33.046L94.4182 33.0709L94.4429 32.8266C95.2295 25.0239 95.9966 17.2186 96.7429 9.41058L96.7661 9.16792L96.5236 9.14324C94.9099 8.979 93.295 8.82911 91.6802 8.69096L91.4206 8.66875L91.4141 8.92918C91.2762 14.4235 91.1119 19.9167 90.921 25.4078C89.7919 19.7713 88.5612 14.1394 87.229 8.51545L87.1875 8.3399L87.0075 8.32731C84.6419 8.16178 82.2762 8.02362 79.9093 7.91284L79.6629 7.9013L79.6528 8.14774C79.3298 15.9835 78.986 23.8179 78.6227 31.6511L78.6113 31.8959L78.8561 31.9075C80.346 31.9778 81.8359 32.0597 83.3258 32.1534L83.5833 32.1696L83.5865 31.9116C83.6545 26.3427 83.6954 20.7727 83.709 15.2015Z" stroke="#B99410" stroke-opacity="0.4" stroke-width="0.49054" shape-rendering="crispEdges"/>
</g>
<g filter="url(#filter2_d_275_3015)">
<path d="M102.775 14.2659C101.492 14.1122 100.208 13.9677 98.9238 13.8309C99.0619 12.4791 99.1986 11.126 99.3341 9.77283C103.663 10.2339 107.988 10.7874 112.307 11.4346C112.113 12.7799 111.919 14.1253 111.725 15.4706C110.444 15.2791 109.163 15.0955 107.881 14.9197C107.035 21.3467 106.174 27.7725 105.3 34.1969C103.707 33.9781 102.115 33.7737 100.52 33.5835C101.286 27.1461 102.038 20.7073 102.775 14.2659Z" fill="url(#paint4_linear_275_3015)" shape-rendering="crispEdges"/>
<path d="M102.775 14.2659C101.492 14.1122 100.208 13.9677 98.9238 13.8309C99.0619 12.4791 99.1986 11.126 99.3341 9.77283C103.663 10.2339 107.988 10.7874 112.307 11.4346C112.113 12.7799 111.919 14.1253 111.725 15.4706C110.444 15.2791 109.163 15.0955 107.881 14.9197C107.035 21.3467 106.174 27.7725 105.3 34.1969C103.707 33.9781 102.115 33.7737 100.52 33.5835C101.286 27.1461 102.038 20.7073 102.775 14.2659Z" fill="url(#paint5_linear_275_3015)" shape-rendering="crispEdges"/>
<path d="M108.092 15.1963C109.291 15.3617 110.49 15.534 111.688 15.7131L111.932 15.7496L111.967 15.5056L112.549 11.4696L112.584 11.2282L112.343 11.1921C108.021 10.5443 103.692 9.99033 99.36 9.52894L99.1146 9.5028L99.09 9.7484C98.9546 11.1014 98.8179 12.4543 98.6798 13.806L98.655 14.049L98.8979 14.0748C100.1 14.2028 101.302 14.3377 102.503 14.4805C101.775 20.8406 101.033 27.1982 100.277 33.5546L100.248 33.798L100.491 33.8271C102.084 34.017 103.675 34.2213 105.267 34.4399L105.51 34.4733L105.543 34.23C106.406 27.8867 107.256 21.5421 108.092 15.1963Z" stroke="#B99410" stroke-opacity="0.4" stroke-width="0.49054" shape-rendering="crispEdges"/>
</g>
<g filter="url(#filter3_d_275_3015)">
<path d="M9.33478 30.3942C8.28509 24.8462 7.22368 19.3008 6.15186 13.7568C7.77587 13.452 9.4025 13.1603 11.0317 12.8829C12.0215 18.5129 13.0009 24.1455 13.9672 29.7795C14.1756 30.9932 14.7043 31.328 15.741 31.1573C16.5953 31.0167 17.4497 30.8799 18.3053 30.7484C18.4967 31.9752 18.6869 33.202 18.877 34.4288C17.4405 34.6515 16.0054 34.8846 14.5728 35.1308C11.0643 35.739 9.91953 33.469 9.33478 30.3955V30.3942Z" fill="url(#paint6_linear_275_3015)" shape-rendering="crispEdges"/>
<path d="M9.33478 30.3942C8.28509 24.8462 7.22368 19.3008 6.15186 13.7568C7.77587 13.452 9.4025 13.1603 11.0317 12.8829C12.0215 18.5129 13.0009 24.1455 13.9672 29.7795C14.1756 30.9932 14.7043 31.328 15.741 31.1573C16.5953 31.0167 17.4497 30.8799 18.3053 30.7484C18.4967 31.9752 18.6869 33.202 18.877 34.4288C17.4405 34.6515 16.0054 34.8846 14.5728 35.1308C11.0643 35.739 9.91953 33.469 9.33478 30.3955V30.3942Z" fill="url(#paint7_linear_275_3015)" shape-rendering="crispEdges"/>
<path d="M6.10662 13.5157L5.86423 13.5612L5.91104 13.8033C6.98136 19.3396 8.04128 24.8771 9.08951 30.4172V30.4186L9.09383 30.4413C9.38752 31.985 9.82943 33.3797 10.6761 34.309C11.5423 35.2597 12.797 35.6875 14.6143 35.3725C16.0454 35.1266 17.4793 34.8937 18.9146 34.6712L19.157 34.6336L19.1194 34.3913L19.1189 34.3881C18.9289 33.1624 18.7389 31.9365 18.5476 30.7106L18.5099 30.4688L18.268 30.506C17.4114 30.6377 16.5562 30.7746 15.7012 30.9153C15.2066 30.9967 14.8979 30.9455 14.6899 30.7908C14.4785 30.6335 14.3096 30.3243 14.2089 29.738C13.2425 24.1037 12.2631 18.4707 11.2733 12.8404L11.2311 12.6002L10.9906 12.6411C9.35991 12.9187 7.73193 13.2107 6.10662 13.5157Z" stroke="#B99410" stroke-opacity="0.4" stroke-width="0.49054" shape-rendering="crispEdges"/>
</g>
<g filter="url(#filter4_d_275_3015)">
<mask id="path-9-outside-1_275_3015" maskUnits="userSpaceOnUse" x="17.6323" y="5.78894" width="26" height="28" fill="black">
<rect fill="white" x="17.6323" y="5.78894" width="26" height="28"/>
<path d="M26.9295 32.909C26.3734 32.9246 25.8941 32.6277 25.6128 32.095C25.3471 31.5923 25.2091 31.0219 25.075 30.4697C25.0593 30.4033 25.0437 30.3382 25.0268 30.2731C24.9343 29.8993 24.8601 29.5151 24.7871 29.1439C24.6803 28.5995 24.5709 28.0369 24.4056 27.5056C24.2623 27.0446 24.0409 26.6213 23.7453 26.2462C23.072 26.1524 22.4221 25.8151 21.8126 25.2434C21.233 24.699 20.7056 23.9554 20.2433 23.0346C19.3238 21.2023 18.7417 18.7877 18.6466 16.4083C18.5424 13.8388 19.0113 11.5141 19.9659 9.86407L19.9698 9.85886C20.1573 9.56583 20.5311 9.34574 20.8567 9.33792C20.9934 9.33402 21.1171 9.36658 21.2226 9.43299C21.3646 9.52155 21.5287 9.62444 21.6159 9.77811C21.7566 9.67653 21.9298 9.61662 22.1134 9.61272C22.271 9.60881 22.426 9.64658 22.5614 9.72211L22.5745 9.72993C22.663 9.79244 22.7399 9.86667 22.8024 9.94872L23.7374 7.34664C23.8547 7.00152 24.0995 6.79836 24.4095 6.78924C24.6738 6.78143 24.9551 6.92599 25.1231 7.1565C25.2768 7.36618 25.3198 7.62144 25.2377 7.85456L24.2857 10.5634L26.2223 8.69066C26.3656 8.5448 26.557 8.46145 26.7615 8.45624C26.9803 8.44973 27.1873 8.53177 27.3449 8.68545L27.3475 8.68806C27.496 8.84043 27.5768 9.05011 27.5702 9.26499C27.5637 9.47206 27.4765 9.66221 27.3254 9.80156C27.19 9.93309 27.0519 10.0659 26.9126 10.2014C26.346 10.7497 25.7639 11.311 25.2247 11.8697C25.2911 11.9061 25.3289 11.9778 25.3471 12.0129C25.8746 12.9363 25.8303 13.6109 25.2169 14.0198L25.2039 14.0277C21.7397 15.8509 21.194 19.2618 21.7787 21.6281C22.0796 22.8432 22.6943 23.7444 23.2725 23.8421C23.3246 23.6767 23.3832 23.4918 23.4392 23.3068C23.6241 22.7012 23.8091 22.0957 23.994 21.4901C24.8679 18.6288 25.7704 15.6699 26.6456 12.7553C26.7576 12.3828 26.923 12.1445 27.4048 12.1015C28.4845 12.0064 29.6149 11.8788 30.86 11.7095C30.9107 11.703 30.9576 11.6991 31.0019 11.6978C31.3223 11.6886 31.5268 11.8189 31.7104 12.1458C32.5973 13.7242 33.4021 15.119 34.1705 16.4096C34.3867 16.773 34.457 17.0842 34.1327 17.5049C33.5232 18.3006 33.3123 19.224 33.505 20.2502C33.5936 20.7204 33.5219 21.0655 33.2667 21.4002C33.0857 21.6385 32.9203 21.8951 32.747 22.166C32.6676 22.291 32.5843 22.4199 32.497 22.5528L32.2482 22.545L29.8819 18.4283L28.1094 24.2081L31.2832 23.846L31.4304 24.057C31.3926 24.1312 31.3627 24.195 31.3353 24.251C31.2845 24.3578 31.2441 24.4412 31.192 24.5206C30.9563 24.8801 30.7154 25.2447 30.481 25.5977C29.9835 26.3478 29.4691 27.1227 28.9846 27.8976C28.7814 28.2219 28.5079 28.554 28.0156 28.5683C27.9714 28.5683 27.9245 28.5683 27.8776 28.5644C27.7825 28.5566 27.6914 28.554 27.6067 28.5553C26.8878 28.5748 26.5075 28.9655 26.4072 29.7821C26.3734 30.0634 26.2731 30.3317 26.1754 30.5908L26.1455 30.6716C25.9879 31.0961 26.1103 31.4465 26.5557 31.8463C26.6859 31.9622 26.8227 32.0169 26.9764 32.013C27.1418 32.0078 27.3319 31.9374 27.5741 31.789C27.7213 31.6991 27.8515 31.604 27.9622 31.5077L27.9935 31.4803C28.2435 31.2628 28.3933 31.1313 28.3126 30.7471C28.2253 30.3317 28.3555 29.7443 28.629 29.3171C29.9079 27.3233 31.2376 25.315 32.523 23.372C32.9177 22.7755 33.3136 22.1777 33.7069 21.5812C33.7446 21.5239 33.7863 21.4718 33.8228 21.425C33.8384 21.4054 33.854 21.3859 33.8684 21.3663L34.0819 21.3442C34.2252 21.4705 34.3802 21.589 34.5378 21.7023C33.9348 20.7686 33.8045 19.7267 34.1405 18.5468L34.4127 18.5246C35.4768 20.7907 37.1893 22.1295 39.6468 22.6166L39.6716 22.8966L38.226 23.4566L42.6409 31.3892L42.5524 31.3918C42.1317 31.44 41.7189 31.4855 41.3125 31.5311C40.1951 31.6561 39.1402 31.7747 38.0814 31.9088C38.0502 31.9127 38.0189 31.9153 37.989 31.9166C37.6504 31.9257 37.5097 31.7265 37.3834 31.5038C37.1047 31.0115 36.8182 30.5127 36.5408 30.0308C36.1683 29.3836 35.7841 28.7142 35.4129 28.0513C35.2827 27.8168 35.1512 27.7517 34.8282 27.7582H34.8008C33.8241 27.7856 33.1703 28.1216 32.6806 28.8496C32.4071 29.2559 32.0659 29.6206 31.7351 29.9735C31.5945 30.1233 31.4499 30.2783 31.3132 30.4332C31.2819 30.4697 31.2494 30.5049 31.2181 30.5413C30.7453 31.0805 30.257 31.6379 29.4495 31.66C29.3388 31.6627 29.2242 31.6561 29.1057 31.6379C29.0849 31.6561 29.0549 31.69 29.0328 31.7134C28.9885 31.7616 28.9429 31.8124 28.8908 31.8502C28.7749 31.9348 28.659 32.026 28.5457 32.1133C28.2618 32.336 27.9675 32.5665 27.6367 32.7241C27.4009 32.8374 27.1626 32.8973 26.9295 32.9038V32.909ZM24.735 12.3919C24.6517 12.4805 24.5827 12.556 24.5241 12.6224C24.5462 12.6081 24.5696 12.5925 24.5944 12.5755C24.6751 12.5195 24.7376 12.4297 24.7871 12.3346C24.7689 12.3541 24.752 12.3724 24.7337 12.3919H24.735Z"/>
</mask>
<path d="M26.9295 32.909C26.3734 32.9246 25.8941 32.6277 25.6128 32.095C25.3471 31.5923 25.2091 31.0219 25.075 30.4697C25.0593 30.4033 25.0437 30.3382 25.0268 30.2731C24.9343 29.8993 24.8601 29.5151 24.7871 29.1439C24.6803 28.5995 24.5709 28.0369 24.4056 27.5056C24.2623 27.0446 24.0409 26.6213 23.7453 26.2462C23.072 26.1524 22.4221 25.8151 21.8126 25.2434C21.233 24.699 20.7056 23.9554 20.2433 23.0346C19.3238 21.2023 18.7417 18.7877 18.6466 16.4083C18.5424 13.8388 19.0113 11.5141 19.9659 9.86407L19.9698 9.85886C20.1573 9.56583 20.5311 9.34574 20.8567 9.33792C20.9934 9.33402 21.1171 9.36658 21.2226 9.43299C21.3646 9.52155 21.5287 9.62444 21.6159 9.77811C21.7566 9.67653 21.9298 9.61662 22.1134 9.61272C22.271 9.60881 22.426 9.64658 22.5614 9.72211L22.5745 9.72993C22.663 9.79244 22.7399 9.86667 22.8024 9.94872L23.7374 7.34664C23.8547 7.00152 24.0995 6.79836 24.4095 6.78924C24.6738 6.78143 24.9551 6.92599 25.1231 7.1565C25.2768 7.36618 25.3198 7.62144 25.2377 7.85456L24.2857 10.5634L26.2223 8.69066C26.3656 8.5448 26.557 8.46145 26.7615 8.45624C26.9803 8.44973 27.1873 8.53177 27.3449 8.68545L27.3475 8.68806C27.496 8.84043 27.5768 9.05011 27.5702 9.26499C27.5637 9.47206 27.4765 9.66221 27.3254 9.80156C27.19 9.93309 27.0519 10.0659 26.9126 10.2014C26.346 10.7497 25.7639 11.311 25.2247 11.8697C25.2911 11.9061 25.3289 11.9778 25.3471 12.0129C25.8746 12.9363 25.8303 13.6109 25.2169 14.0198L25.2039 14.0277C21.7397 15.8509 21.194 19.2618 21.7787 21.6281C22.0796 22.8432 22.6943 23.7444 23.2725 23.8421C23.3246 23.6767 23.3832 23.4918 23.4392 23.3068C23.6241 22.7012 23.8091 22.0957 23.994 21.4901C24.8679 18.6288 25.7704 15.6699 26.6456 12.7553C26.7576 12.3828 26.923 12.1445 27.4048 12.1015C28.4845 12.0064 29.6149 11.8788 30.86 11.7095C30.9107 11.703 30.9576 11.6991 31.0019 11.6978C31.3223 11.6886 31.5268 11.8189 31.7104 12.1458C32.5973 13.7242 33.4021 15.119 34.1705 16.4096C34.3867 16.773 34.457 17.0842 34.1327 17.5049C33.5232 18.3006 33.3123 19.224 33.505 20.2502C33.5936 20.7204 33.5219 21.0655 33.2667 21.4002C33.0857 21.6385 32.9203 21.8951 32.747 22.166C32.6676 22.291 32.5843 22.4199 32.497 22.5528L32.2482 22.545L29.8819 18.4283L28.1094 24.2081L31.2832 23.846L31.4304 24.057C31.3926 24.1312 31.3627 24.195 31.3353 24.251C31.2845 24.3578 31.2441 24.4412 31.192 24.5206C30.9563 24.8801 30.7154 25.2447 30.481 25.5977C29.9835 26.3478 29.4691 27.1227 28.9846 27.8976C28.7814 28.2219 28.5079 28.554 28.0156 28.5683C27.9714 28.5683 27.9245 28.5683 27.8776 28.5644C27.7825 28.5566 27.6914 28.554 27.6067 28.5553C26.8878 28.5748 26.5075 28.9655 26.4072 29.7821C26.3734 30.0634 26.2731 30.3317 26.1754 30.5908L26.1455 30.6716C25.9879 31.0961 26.1103 31.4465 26.5557 31.8463C26.6859 31.9622 26.8227 32.0169 26.9764 32.013C27.1418 32.0078 27.3319 31.9374 27.5741 31.789C27.7213 31.6991 27.8515 31.604 27.9622 31.5077L27.9935 31.4803C28.2435 31.2628 28.3933 31.1313 28.3126 30.7471C28.2253 30.3317 28.3555 29.7443 28.629 29.3171C29.9079 27.3233 31.2376 25.315 32.523 23.372C32.9177 22.7755 33.3136 22.1777 33.7069 21.5812C33.7446 21.5239 33.7863 21.4718 33.8228 21.425C33.8384 21.4054 33.854 21.3859 33.8684 21.3663L34.0819 21.3442C34.2252 21.4705 34.3802 21.589 34.5378 21.7023C33.9348 20.7686 33.8045 19.7267 34.1405 18.5468L34.4127 18.5246C35.4768 20.7907 37.1893 22.1295 39.6468 22.6166L39.6716 22.8966L38.226 23.4566L42.6409 31.3892L42.5524 31.3918C42.1317 31.44 41.7189 31.4855 41.3125 31.5311C40.1951 31.6561 39.1402 31.7747 38.0814 31.9088C38.0502 31.9127 38.0189 31.9153 37.989 31.9166C37.6504 31.9257 37.5097 31.7265 37.3834 31.5038C37.1047 31.0115 36.8182 30.5127 36.5408 30.0308C36.1683 29.3836 35.7841 28.7142 35.4129 28.0513C35.2827 27.8168 35.1512 27.7517 34.8282 27.7582H34.8008C33.8241 27.7856 33.1703 28.1216 32.6806 28.8496C32.4071 29.2559 32.0659 29.6206 31.7351 29.9735C31.5945 30.1233 31.4499 30.2783 31.3132 30.4332C31.2819 30.4697 31.2494 30.5049 31.2181 30.5413C30.7453 31.0805 30.257 31.6379 29.4495 31.66C29.3388 31.6627 29.2242 31.6561 29.1057 31.6379C29.0849 31.6561 29.0549 31.69 29.0328 31.7134C28.9885 31.7616 28.9429 31.8124 28.8908 31.8502C28.7749 31.9348 28.659 32.026 28.5457 32.1133C28.2618 32.336 27.9675 32.5665 27.6367 32.7241C27.4009 32.8374 27.1626 32.8973 26.9295 32.9038V32.909ZM24.735 12.3919C24.6517 12.4805 24.5827 12.556 24.5241 12.6224C24.5462 12.6081 24.5696 12.5925 24.5944 12.5755C24.6751 12.5195 24.7376 12.4297 24.7871 12.3346C24.7689 12.3541 24.752 12.3724 24.7337 12.3919H24.735Z" fill="url(#paint8_linear_275_3015)" shape-rendering="crispEdges"/>
<path d="M26.9295 32.909C26.3734 32.9246 25.8941 32.6277 25.6128 32.095C25.3471 31.5923 25.2091 31.0219 25.075 30.4697C25.0593 30.4033 25.0437 30.3382 25.0268 30.2731C24.9343 29.8993 24.8601 29.5151 24.7871 29.1439C24.6803 28.5995 24.5709 28.0369 24.4056 27.5056C24.2623 27.0446 24.0409 26.6213 23.7453 26.2462C23.072 26.1524 22.4221 25.8151 21.8126 25.2434C21.233 24.699 20.7056 23.9554 20.2433 23.0346C19.3238 21.2023 18.7417 18.7877 18.6466 16.4083C18.5424 13.8388 19.0113 11.5141 19.9659 9.86407L19.9698 9.85886C20.1573 9.56583 20.5311 9.34574 20.8567 9.33792C20.9934 9.33402 21.1171 9.36658 21.2226 9.43299C21.3646 9.52155 21.5287 9.62444 21.6159 9.77811C21.7566 9.67653 21.9298 9.61662 22.1134 9.61272C22.271 9.60881 22.426 9.64658 22.5614 9.72211L22.5745 9.72993C22.663 9.79244 22.7399 9.86667 22.8024 9.94872L23.7374 7.34664C23.8547 7.00152 24.0995 6.79836 24.4095 6.78924C24.6738 6.78143 24.9551 6.92599 25.1231 7.1565C25.2768 7.36618 25.3198 7.62144 25.2377 7.85456L24.2857 10.5634L26.2223 8.69066C26.3656 8.5448 26.557 8.46145 26.7615 8.45624C26.9803 8.44973 27.1873 8.53177 27.3449 8.68545L27.3475 8.68806C27.496 8.84043 27.5768 9.05011 27.5702 9.26499C27.5637 9.47206 27.4765 9.66221 27.3254 9.80156C27.19 9.93309 27.0519 10.0659 26.9126 10.2014C26.346 10.7497 25.7639 11.311 25.2247 11.8697C25.2911 11.9061 25.3289 11.9778 25.3471 12.0129C25.8746 12.9363 25.8303 13.6109 25.2169 14.0198L25.2039 14.0277C21.7397 15.8509 21.194 19.2618 21.7787 21.6281C22.0796 22.8432 22.6943 23.7444 23.2725 23.8421C23.3246 23.6767 23.3832 23.4918 23.4392 23.3068C23.6241 22.7012 23.8091 22.0957 23.994 21.4901C24.8679 18.6288 25.7704 15.6699 26.6456 12.7553C26.7576 12.3828 26.923 12.1445 27.4048 12.1015C28.4845 12.0064 29.6149 11.8788 30.86 11.7095C30.9107 11.703 30.9576 11.6991 31.0019 11.6978C31.3223 11.6886 31.5268 11.8189 31.7104 12.1458C32.5973 13.7242 33.4021 15.119 34.1705 16.4096C34.3867 16.773 34.457 17.0842 34.1327 17.5049C33.5232 18.3006 33.3123 19.224 33.505 20.2502C33.5936 20.7204 33.5219 21.0655 33.2667 21.4002C33.0857 21.6385 32.9203 21.8951 32.747 22.166C32.6676 22.291 32.5843 22.4199 32.497 22.5528L32.2482 22.545L29.8819 18.4283L28.1094 24.2081L31.2832 23.846L31.4304 24.057C31.3926 24.1312 31.3627 24.195 31.3353 24.251C31.2845 24.3578 31.2441 24.4412 31.192 24.5206C30.9563 24.8801 30.7154 25.2447 30.481 25.5977C29.9835 26.3478 29.4691 27.1227 28.9846 27.8976C28.7814 28.2219 28.5079 28.554 28.0156 28.5683C27.9714 28.5683 27.9245 28.5683 27.8776 28.5644C27.7825 28.5566 27.6914 28.554 27.6067 28.5553C26.8878 28.5748 26.5075 28.9655 26.4072 29.7821C26.3734 30.0634 26.2731 30.3317 26.1754 30.5908L26.1455 30.6716C25.9879 31.0961 26.1103 31.4465 26.5557 31.8463C26.6859 31.9622 26.8227 32.0169 26.9764 32.013C27.1418 32.0078 27.3319 31.9374 27.5741 31.789C27.7213 31.6991 27.8515 31.604 27.9622 31.5077L27.9935 31.4803C28.2435 31.2628 28.3933 31.1313 28.3126 30.7471C28.2253 30.3317 28.3555 29.7443 28.629 29.3171C29.9079 27.3233 31.2376 25.315 32.523 23.372C32.9177 22.7755 33.3136 22.1777 33.7069 21.5812C33.7446 21.5239 33.7863 21.4718 33.8228 21.425C33.8384 21.4054 33.854 21.3859 33.8684 21.3663L34.0819 21.3442C34.2252 21.4705 34.3802 21.589 34.5378 21.7023C33.9348 20.7686 33.8045 19.7267 34.1405 18.5468L34.4127 18.5246C35.4768 20.7907 37.1893 22.1295 39.6468 22.6166L39.6716 22.8966L38.226 23.4566L42.6409 31.3892L42.5524 31.3918C42.1317 31.44 41.7189 31.4855 41.3125 31.5311C40.1951 31.6561 39.1402 31.7747 38.0814 31.9088C38.0502 31.9127 38.0189 31.9153 37.989 31.9166C37.6504 31.9257 37.5097 31.7265 37.3834 31.5038C37.1047 31.0115 36.8182 30.5127 36.5408 30.0308C36.1683 29.3836 35.7841 28.7142 35.4129 28.0513C35.2827 27.8168 35.1512 27.7517 34.8282 27.7582H34.8008C33.8241 27.7856 33.1703 28.1216 32.6806 28.8496C32.4071 29.2559 32.0659 29.6206 31.7351 29.9735C31.5945 30.1233 31.4499 30.2783 31.3132 30.4332C31.2819 30.4697 31.2494 30.5049 31.2181 30.5413C30.7453 31.0805 30.257 31.6379 29.4495 31.66C29.3388 31.6627 29.2242 31.6561 29.1057 31.6379C29.0849 31.6561 29.0549 31.69 29.0328 31.7134C28.9885 31.7616 28.9429 31.8124 28.8908 31.8502C28.7749 31.9348 28.659 32.026 28.5457 32.1133C28.2618 32.336 27.9675 32.5665 27.6367 32.7241C27.4009 32.8374 27.1626 32.8973 26.9295 32.9038V32.909ZM24.735 12.3919C24.6517 12.4805 24.5827 12.556 24.5241 12.6224C24.5462 12.6081 24.5696 12.5925 24.5944 12.5755C24.6751 12.5195 24.7376 12.4297 24.7871 12.3346C24.7689 12.3541 24.752 12.3724 24.7337 12.3919H24.735Z" fill="url(#paint9_linear_275_3015)" shape-rendering="crispEdges"/>
<path d="M26.9295 32.909C26.3734 32.9246 25.8941 32.6277 25.6128 32.095C25.3471 31.5923 25.2091 31.0219 25.075 30.4697C25.0593 30.4033 25.0437 30.3382 25.0268 30.2731C24.9343 29.8993 24.8601 29.5151 24.7871 29.1439C24.6803 28.5995 24.5709 28.0369 24.4056 27.5056C24.2623 27.0446 24.0409 26.6213 23.7453 26.2462C23.072 26.1524 22.4221 25.8151 21.8126 25.2434C21.233 24.699 20.7056 23.9554 20.2433 23.0346C19.3238 21.2023 18.7417 18.7877 18.6466 16.4083C18.5424 13.8388 19.0113 11.5141 19.9659 9.86407L19.9698 9.85886C20.1573 9.56583 20.5311 9.34574 20.8567 9.33792C20.9934 9.33402 21.1171 9.36658 21.2226 9.43299C21.3646 9.52155 21.5287 9.62444 21.6159 9.77811C21.7566 9.67653 21.9298 9.61662 22.1134 9.61272C22.271 9.60881 22.426 9.64658 22.5614 9.72211L22.5745 9.72993C22.663 9.79244 22.7399 9.86667 22.8024 9.94872L23.7374 7.34664C23.8547 7.00152 24.0995 6.79836 24.4095 6.78924C24.6738 6.78143 24.9551 6.92599 25.1231 7.1565C25.2768 7.36618 25.3198 7.62144 25.2377 7.85456L24.2857 10.5634L26.2223 8.69066C26.3656 8.5448 26.557 8.46145 26.7615 8.45624C26.9803 8.44973 27.1873 8.53177 27.3449 8.68545L27.3475 8.68806C27.496 8.84043 27.5768 9.05011 27.5702 9.26499C27.5637 9.47206 27.4765 9.66221 27.3254 9.80156C27.19 9.93309 27.0519 10.0659 26.9126 10.2014C26.346 10.7497 25.7639 11.311 25.2247 11.8697C25.2911 11.9061 25.3289 11.9778 25.3471 12.0129C25.8746 12.9363 25.8303 13.6109 25.2169 14.0198L25.2039 14.0277C21.7397 15.8509 21.194 19.2618 21.7787 21.6281C22.0796 22.8432 22.6943 23.7444 23.2725 23.8421C23.3246 23.6767 23.3832 23.4918 23.4392 23.3068C23.6241 22.7012 23.8091 22.0957 23.994 21.4901C24.8679 18.6288 25.7704 15.6699 26.6456 12.7553C26.7576 12.3828 26.923 12.1445 27.4048 12.1015C28.4845 12.0064 29.6149 11.8788 30.86 11.7095C30.9107 11.703 30.9576 11.6991 31.0019 11.6978C31.3223 11.6886 31.5268 11.8189 31.7104 12.1458C32.5973 13.7242 33.4021 15.119 34.1705 16.4096C34.3867 16.773 34.457 17.0842 34.1327 17.5049C33.5232 18.3006 33.3123 19.224 33.505 20.2502C33.5936 20.7204 33.5219 21.0655 33.2667 21.4002C33.0857 21.6385 32.9203 21.8951 32.747 22.166C32.6676 22.291 32.5843 22.4199 32.497 22.5528L32.2482 22.545L29.8819 18.4283L28.1094 24.2081L31.2832 23.846L31.4304 24.057C31.3926 24.1312 31.3627 24.195 31.3353 24.251C31.2845 24.3578 31.2441 24.4412 31.192 24.5206C30.9563 24.8801 30.7154 25.2447 30.481 25.5977C29.9835 26.3478 29.4691 27.1227 28.9846 27.8976C28.7814 28.2219 28.5079 28.554 28.0156 28.5683C27.9714 28.5683 27.9245 28.5683 27.8776 28.5644C27.7825 28.5566 27.6914 28.554 27.6067 28.5553C26.8878 28.5748 26.5075 28.9655 26.4072 29.7821C26.3734 30.0634 26.2731 30.3317 26.1754 30.5908L26.1455 30.6716C25.9879 31.0961 26.1103 31.4465 26.5557 31.8463C26.6859 31.9622 26.8227 32.0169 26.9764 32.013C27.1418 32.0078 27.3319 31.9374 27.5741 31.789C27.7213 31.6991 27.8515 31.604 27.9622 31.5077L27.9935 31.4803C28.2435 31.2628 28.3933 31.1313 28.3126 30.7471C28.2253 30.3317 28.3555 29.7443 28.629 29.3171C29.9079 27.3233 31.2376 25.315 32.523 23.372C32.9177 22.7755 33.3136 22.1777 33.7069 21.5812C33.7446 21.5239 33.7863 21.4718 33.8228 21.425C33.8384 21.4054 33.854 21.3859 33.8684 21.3663L34.0819 21.3442C34.2252 21.4705 34.3802 21.589 34.5378 21.7023C33.9348 20.7686 33.8045 19.7267 34.1405 18.5468L34.4127 18.5246C35.4768 20.7907 37.1893 22.1295 39.6468 22.6166L39.6716 22.8966L38.226 23.4566L42.6409 31.3892L42.5524 31.3918C42.1317 31.44 41.7189 31.4855 41.3125 31.5311C40.1951 31.6561 39.1402 31.7747 38.0814 31.9088C38.0502 31.9127 38.0189 31.9153 37.989 31.9166C37.6504 31.9257 37.5097 31.7265 37.3834 31.5038C37.1047 31.0115 36.8182 30.5127 36.5408 30.0308C36.1683 29.3836 35.7841 28.7142 35.4129 28.0513C35.2827 27.8168 35.1512 27.7517 34.8282 27.7582H34.8008C33.8241 27.7856 33.1703 28.1216 32.6806 28.8496C32.4071 29.2559 32.0659 29.6206 31.7351 29.9735C31.5945 30.1233 31.4499 30.2783 31.3132 30.4332C31.2819 30.4697 31.2494 30.5049 31.2181 30.5413C30.7453 31.0805 30.257 31.6379 29.4495 31.66C29.3388 31.6627 29.2242 31.6561 29.1057 31.6379C29.0849 31.6561 29.0549 31.69 29.0328 31.7134C28.9885 31.7616 28.9429 31.8124 28.8908 31.8502C28.7749 31.9348 28.659 32.026 28.5457 32.1133C28.2618 32.336 27.9675 32.5665 27.6367 32.7241C27.4009 32.8374 27.1626 32.8973 26.9295 32.9038V32.909ZM24.735 12.3919C24.6517 12.4805 24.5827 12.556 24.5241 12.6224C24.5462 12.6081 24.5696 12.5925 24.5944 12.5755C24.6751 12.5195 24.7376 12.4297 24.7871 12.3346C24.7689 12.3541 24.752 12.3724 24.7337 12.3919H24.735Z" stroke="#B99410" stroke-opacity="0.4" stroke-width="0.98108" shape-rendering="crispEdges" mask="url(#path-9-outside-1_275_3015)"/>
</g>
<g filter="url(#filter5_d_275_3015)">
<path d="M41.207 17.04C42.6878 16.3237 44.1699 15.6061 45.6702 14.8807C45.9462 15.3482 45.9202 15.6087 45.4253 15.7845C44.1725 16.2286 42.9339 16.7079 41.6863 17.1676C41.5587 17.2145 41.4167 17.2236 41.2813 17.251C41.2565 17.1806 41.2318 17.1116 41.207 17.0413V17.04Z" fill="url(#paint10_linear_275_3015)" shape-rendering="crispEdges"/>
<path d="M41.1002 16.8192L40.9618 16.8862V17.04V17.0413V17.0832L40.9757 17.1227L41.013 17.2282L41.0499 17.3324L41.1207 17.5336L41.3298 17.4914C41.3692 17.4834 41.4043 17.478 41.4445 17.4718C41.4695 17.4679 41.4964 17.4637 41.5276 17.4584C41.6004 17.4461 41.6855 17.4292 41.7709 17.3978L41.7711 17.3978C42.2251 17.2305 42.6763 17.0612 43.1265 16.8923C43.9192 16.595 44.7091 16.2986 45.5073 16.0157L45.5074 16.0156C45.7753 15.9205 46.0122 15.7705 46.0757 15.4976C46.1334 15.2497 46.0205 14.9916 45.8813 14.756L45.7666 14.5616L45.5634 14.6599C44.6631 15.0952 43.7692 15.5277 42.8783 15.9588C42.2847 16.2461 41.6923 16.5328 41.1002 16.8192Z" stroke="#B99410" stroke-opacity="0.4" stroke-width="0.49054" shape-rendering="crispEdges"/>
</g>
<g filter="url(#filter6_d_275_3015)">
<path d="M41.9496 20.8869C43.011 21.8715 44.1844 22.8743 45.2862 23.8966C45.0687 24.1063 44.8981 24.2704 44.648 24.51C43.7051 23.3627 42.7831 22.2427 41.8623 21.1226C41.9287 21.0497 41.8831 20.9599 41.9496 20.8869Z" fill="url(#paint11_linear_275_3015)" shape-rendering="crispEdges"/>
<path d="M42.1164 20.7071L41.9349 20.5388L41.7682 20.7218C41.6816 20.8169 41.6684 20.9259 41.6634 20.9673C41.6631 20.9697 41.6629 20.9718 41.6626 20.9736C41.6624 20.9753 41.6622 20.9768 41.662 20.9783L41.538 21.1144L41.6728 21.2784C42.0776 21.7708 42.4826 22.263 42.8894 22.7576C43.4081 23.3882 43.93 24.0226 44.4585 24.6658L44.6266 24.8703L44.8177 24.6871C45.068 24.4473 45.2387 24.283 45.4564 24.0732L45.6431 23.8932L45.453 23.7168C44.8999 23.2036 44.3292 22.6957 43.7657 22.1944L43.7477 22.1783C43.1897 21.6819 42.6392 21.1921 42.1164 20.7071Z" stroke="#B99410" stroke-opacity="0.4" stroke-width="0.49054" shape-rendering="crispEdges"/>
</g>
<g filter="url(#filter7_d_275_3015)">
<path d="M39.5322 16.2193C40.2928 14.0926 41.0534 11.9646 41.8673 9.68681C42.2255 9.92123 42.4859 10.0918 42.835 10.3197C41.8322 12.3423 40.8398 14.3466 39.8461 16.3496C39.7419 16.3066 39.6364 16.2623 39.5322 16.2193Z" fill="url(#paint12_linear_275_3015)" shape-rendering="crispEdges"/>
<path d="M39.3013 16.1368L39.2225 16.3569L39.4387 16.4461C39.4903 16.4674 39.5423 16.489 39.5946 16.5108L39.5949 16.5109L39.595 16.511C39.6474 16.5327 39.7001 16.5547 39.7526 16.5763L39.9641 16.6636L40.0658 16.4586C40.6469 15.2874 41.2275 14.1156 41.81 12.94C42.2237 12.1052 42.6383 11.2685 43.0547 10.4287L43.1515 10.2335L42.9691 10.1144C42.6741 9.92178 42.4425 9.77014 42.1615 9.5862C42.1101 9.55256 42.057 9.51784 42.0016 9.48159L41.7411 9.31107L41.6364 9.60427C40.8224 11.8821 40.0618 14.0101 39.3013 16.1368Z" stroke="#B99410" stroke-opacity="0.4" stroke-width="0.49054" shape-rendering="crispEdges"/>
</g>
<g filter="url(#filter8_d_275_3015)">
<path d="M35.0772 15.4497C34.9952 15.3012 34.8949 15.1801 34.8558 15.0421C34.5446 13.9299 34.2333 12.8177 33.9546 11.6976C33.9221 11.5674 34.0575 11.2939 34.1721 11.2562C34.2919 11.2158 34.6032 11.3577 34.6201 11.4567C34.8428 12.7382 35.0291 14.0275 35.2192 15.3142C35.2218 15.3338 35.1697 15.3624 35.0772 15.4497Z" fill="url(#paint13_linear_275_3015)" shape-rendering="crispEdges"/>
<path d="M34.0946 11.0235C34.0041 11.0535 33.9388 11.1167 33.8991 11.163C33.8549 11.2146 33.8175 11.2744 33.7883 11.3337C33.7589 11.3931 33.7341 11.4592 33.7193 11.5258C33.7055 11.5879 33.6955 11.672 33.7166 11.7569C33.9962 12.8803 34.3082 13.9954 34.6192 15.1065L34.6197 15.1082L34.6198 15.1089C34.6487 15.2108 34.6978 15.2987 34.7409 15.3694C34.7592 15.3996 34.7755 15.4252 34.7907 15.4493C34.8161 15.4894 34.8386 15.5249 34.8626 15.5683L35.0156 15.8451L34.6201 11.4567L34.8619 11.4154C34.8619 11.4153 34.8618 11.4151 34.8618 11.415C34.8504 11.3484 34.8186 11.2982 34.7942 11.2671C34.7685 11.2341 34.7392 11.2072 34.7125 11.186C34.6592 11.1436 34.5962 11.108 34.5356 11.0806C34.4744 11.053 34.4058 11.0294 34.338 11.016C34.2783 11.0041 34.1855 10.9931 34.0946 11.0235ZM34.0946 11.0235C34.0948 11.0234 34.0951 11.0233 34.0954 11.0232L34.1721 11.2562L34.0938 11.0237C34.0941 11.0236 34.0943 11.0236 34.0946 11.0235ZM34.9753 15.3417L34.9089 15.2713C34.9223 15.2587 34.935 15.247 34.947 15.2363C34.9525 15.2454 34.9581 15.2546 34.9638 15.2637C34.9676 15.2897 34.9715 15.3157 34.9753 15.3417ZM34.9753 15.3417C34.9757 15.3445 34.9762 15.3473 34.9766 15.3501L34.9824 15.3492M34.9753 15.3417L34.9755 15.3419M34.9824 15.3492L35.0772 15.4497M34.9824 15.3492L35.0146 15.3445C35.0358 15.3783 35.0571 15.4132 35.0772 15.4497M34.9824 15.3492L34.9796 15.3462M35.0772 15.4497L35.2919 15.3311C35.2874 15.3229 35.2828 15.3147 35.278 15.3064C35.2779 15.3061 35.2777 15.3059 35.2776 15.3056C35.2519 15.2611 35.2235 15.2158 35.1989 15.1768C35.2057 15.2226 35.2124 15.2684 35.2192 15.3142C35.2207 15.3259 35.203 15.3407 35.1689 15.3691C35.1456 15.3886 35.1148 15.4143 35.0772 15.4497ZM34.9796 15.3462L35.0129 15.3418C35.0062 15.331 34.9994 15.3204 34.9928 15.3098C34.9872 15.301 34.9817 15.2923 34.9762 15.2836C34.9738 15.3011 34.9731 15.3207 34.9755 15.3419M34.9796 15.3462L34.9755 15.3419M34.9796 15.3462L34.9761 15.3467C34.9759 15.3451 34.9757 15.3435 34.9755 15.3419" stroke="#B99410" stroke-opacity="0.4" stroke-width="0.49054" shape-rendering="crispEdges"/>
</g>
<g filter="url(#filter9_d_275_3015)">
<path d="M37.4499 12.5063C38.1636 12.5194 38.2274 12.5923 38.0764 13.1536C37.9123 13.7618 37.7534 14.3726 37.5828 14.9782C37.5307 15.1631 37.4473 15.3389 37.3783 15.5187C37.3015 15.5056 37.2233 15.4926 37.1465 15.4796C37.2481 14.4872 37.3483 13.4948 37.4499 12.5063Z" fill="url(#paint14_linear_275_3015)" shape-rendering="crispEdges"/>
<path d="M37.229 12.257L37.4544 12.2611C37.633 12.2644 37.787 12.2714 37.9107 12.2922C38.0294 12.3121 38.1652 12.3511 38.2645 12.4547C38.3732 12.5681 38.3933 12.7096 38.3876 12.8292C38.3821 12.9445 38.3509 13.0773 38.3132 13.2174L38.3132 13.2175C38.2626 13.4049 38.2124 13.5932 38.162 13.7819C38.0498 14.2027 37.937 14.6255 37.8188 15.0447L37.229 12.257ZM37.229 12.257L37.2059 12.4813M37.229 12.257L37.2059 12.4813M37.2059 12.4813C37.1484 13.041 37.0913 13.6023 37.0341 14.164C36.9903 14.5941 36.9465 15.0245 36.9025 15.4546L36.8791 15.683L37.1055 15.7214L37.2217 15.741L37.3373 15.7605L37.5353 15.794M37.2059 12.4813L37.5353 15.794M37.5353 15.794L37.6073 15.6066M37.5353 15.794L37.6073 15.6066M37.6073 15.6066C37.6245 15.5617 37.6448 15.5125 37.6662 15.4604M37.6073 15.6066L37.6662 15.4604M37.6662 15.4604C37.719 15.3319 37.779 15.186 37.8188 15.0447L37.6662 15.4604Z" stroke="#B99410" stroke-opacity="0.4" stroke-width="0.49054" shape-rendering="crispEdges"/>
</g>
<g filter="url(#filter10_d_275_3015)">
<path d="M44.3862 20.6397C43.5957 20.2894 42.813 19.9429 42.0303 19.5965C42.0446 19.5379 42.0602 19.478 42.0746 19.4194C42.1826 19.4077 42.2986 19.3634 42.3975 19.3881C42.9601 19.5236 43.5162 19.6916 44.0802 19.8153C44.5777 19.9247 44.6115 20.1943 44.3849 20.6384L44.3862 20.6397Z" fill="url(#paint15_linear_275_3015)" shape-rendering="crispEdges"/>
<path d="M44.2868 20.8639L44.427 20.6599L44.6034 20.7499C44.7186 20.524 44.8119 20.2662 44.7384 20.0287C44.6559 19.7626 44.4084 19.6363 44.1328 19.5758L44.1327 19.5757C43.8086 19.5046 43.5009 19.4224 43.1872 19.3386C42.95 19.2752 42.7095 19.211 42.4558 19.1499C42.3549 19.125 42.2594 19.1378 42.1979 19.1484C42.1613 19.1547 42.137 19.1597 42.1171 19.1638C42.092 19.169 42.0741 19.1727 42.0481 19.1756L41.8771 19.1941L41.8363 19.3612C41.8294 19.3894 41.8222 19.4181 41.8146 19.4479L41.8145 19.4483C41.8071 19.4776 41.7994 19.508 41.792 19.5383L41.7433 19.7377L41.931 19.8208C42.7137 20.1672 43.4964 20.5136 44.2868 20.8639Z" stroke="#B99410" stroke-opacity="0.4" stroke-width="0.49054" shape-rendering="crispEdges"/>
</g>
<g filter="url(#filter11_d_275_3015)">
<path d="M19.6426 34.4208C20.424 31.8539 21.333 29.0252 22.1105 26.4713C22.8555 27.0613 23.2175 27.8114 23.4037 28.6319C23.6303 29.6282 23.7476 30.6492 23.9755 31.6442C24.0731 32.0675 24.3024 32.4712 24.5238 32.8541C24.8051 33.3386 24.8168 33.6967 24.2802 33.7592C22.8346 33.9285 21.1754 34.2476 19.6426 34.4221V34.4208Z" fill="url(#paint16_linear_275_3015)" shape-rendering="crispEdges"/>
<path d="M19.6426 34.4208C20.424 31.8539 21.333 29.0252 22.1105 26.4713C22.8555 27.0613 23.2175 27.8114 23.4037 28.6319C23.6303 29.6282 23.7476 30.6492 23.9755 31.6442C24.0731 32.0675 24.3024 32.4712 24.5238 32.8541C24.8051 33.3386 24.8168 33.6967 24.2802 33.7592C22.8346 33.9285 21.1754 34.2476 19.6426 34.4221V34.4208Z" fill="url(#paint17_linear_275_3015)" shape-rendering="crispEdges"/>
<path d="M19.3973 34.3843L19.4079 34.3494C19.799 33.0648 20.2219 31.7149 20.644 30.3678L20.6462 30.3607C21.0676 29.0156 21.4882 27.6734 21.8759 26.3999L21.9807 26.0556L22.2628 26.279C23.063 26.9128 23.4479 27.7187 23.6429 28.5775L19.3973 34.3843ZM19.3973 34.3843V34.4208M19.3973 34.3843V34.4208M19.3973 34.4208V34.4221V34.6969M19.3973 34.4208V34.6969M19.3973 34.6969L19.6703 34.6658M19.3973 34.6969L19.6703 34.6658M19.6703 34.6658C20.4426 34.5779 21.2455 34.4537 22.0319 34.331M19.6703 34.6658L22.0319 34.331M22.0319 34.331L22.1121 34.3185M22.0319 34.331L22.1121 34.3185M22.1121 34.3185C22.8726 34.1999 23.6158 34.084 24.3086 34.0028L22.1121 34.3185Z" stroke="#B99410" stroke-opacity="0.4" stroke-width="0.49054" shape-rendering="crispEdges"/>
</g>
<g filter="url(#filter12_d_275_3015)">
<path d="M41.0443 19.9221C41.1315 21.7245 40.8046 22.011 39.1467 21.5656C37.3144 21.0734 35.9703 19.9403 35.327 18.0897C35.1433 17.5609 35.297 17.2367 35.8101 16.9931C38.071 15.92 40.763 17.4164 41.0443 19.9221Z" fill="url(#paint18_linear_275_3015)" shape-rendering="crispEdges"/>
<path d="M41.0443 19.9221C41.1315 21.7245 40.8046 22.011 39.1467 21.5656C37.3144 21.0734 35.9703 19.9403 35.327 18.0897C35.1433 17.5609 35.297 17.2367 35.8101 16.9931C38.071 15.92 40.763 17.4164 41.0443 19.9221Z" fill="url(#paint19_linear_275_3015)" shape-rendering="crispEdges"/>
<path d="M41.2892 19.9102L41.2889 19.9025L41.288 19.8947C40.988 17.2224 38.1186 15.6259 35.705 16.7715C35.4235 16.9052 35.197 17.0807 35.0835 17.3341C34.9685 17.5905 34.9924 17.8739 35.0953 18.1702L35.0953 18.1702C35.7678 20.1047 37.1798 21.2912 39.0831 21.8025C39.5016 21.915 39.8556 21.9869 40.1478 21.9954C40.4416 22.0039 40.7066 21.9492 40.9107 21.7721C41.1122 21.5972 41.2114 21.3399 41.2598 21.0412C41.3084 20.7415 41.3112 20.3646 41.2892 19.9102Z" stroke="#B99410" stroke-opacity="0.4" stroke-width="0.49054" shape-rendering="crispEdges"/>
</g>
<g filter="url(#filter13_d_275_3015)">
<path d="M49.7189 11.4502C47.9281 11.596 46.1465 11.8252 44.3793 12.1352C44.0732 10.8055 43.758 9.47713 43.4351 8.15134C49.7241 7.02091 56.1876 6.85942 62.5964 7.69813C62.5052 9.06038 62.405 10.4213 62.2956 11.781C60.4944 11.5374 58.6881 11.3798 56.8843 11.3043C56.9612 17.8108 56.8335 24.3108 56.5041 30.7938C54.9009 30.7105 53.3016 30.7248 51.7153 30.8381C51.253 24.3642 50.5888 17.8968 49.7202 11.4489L49.7189 11.4502Z" fill="url(#paint20_linear_275_3015)" shape-rendering="crispEdges"/>
<path d="M49.7189 11.4502C47.9281 11.596 46.1465 11.8252 44.3793 12.1352C44.0732 10.8055 43.758 9.47713 43.4351 8.15134C49.7241 7.02091 56.1876 6.85942 62.5964 7.69813C62.5052 9.06038 62.405 10.4213 62.2956 11.781C60.4944 11.5374 58.6881 11.3798 56.8843 11.3043C56.9612 17.8108 56.8335 24.3108 56.5041 30.7938C54.9009 30.7105 53.3016 30.7248 51.7153 30.8381C51.253 24.3642 50.5888 17.8968 49.7202 11.4489L49.7189 11.4502Z" fill="url(#paint21_linear_275_3015)" shape-rendering="crispEdges"/>
<path d="M44.4216 12.3768C46.1057 12.0814 47.8028 11.8597 49.5083 11.7139C50.361 18.0797 51.0143 24.4645 51.4707 30.8556L51.4882 31.1003L51.7328 31.0828C53.3088 30.9702 54.898 30.956 56.4913 31.0388L56.7365 31.0515L56.749 30.8063C57.0744 24.4043 57.2031 17.9858 57.1325 11.5608C58.8429 11.6398 60.5552 11.7932 62.2627 12.024L62.5193 12.0587L62.54 11.8006C62.6495 10.4399 62.7499 9.07785 62.8411 7.71451L62.8565 7.48481L62.6282 7.45493C56.1944 6.61295 49.7055 6.77506 43.3917 7.90994L43.135 7.95607L43.1968 8.2094C43.5195 9.53423 43.8344 10.8616 44.1402 12.1902L44.1924 12.417L44.4216 12.3768Z" stroke="#B99410" stroke-opacity="0.4" stroke-width="0.49054" shape-rendering="crispEdges"/>
</g>
<defs>
<filter id="filter0_d_275_3015" x="62.124" y="7.17371" width="17.9776" height="29.7626" filterUnits="userSpaceOnUse" color-interpolation-filters="sRGB">
<feFlood flood-opacity="0" result="BackgroundImageFix"/>
<feColorMatrix in="SourceAlpha" type="matrix" values="0 0 0 0 0 0 0 0 0 0 0 0 0 0 0 0 0 0 127 0" result="hardAlpha"/>
<feOffset dy="2.51711"/>
<feGaussianBlur stdDeviation="1.25856"/>
<feComposite in2="hardAlpha" operator="out"/>
<feColorMatrix type="matrix" values="0 0 0 0 0 0 0 0 0 0 0 0 0 0 0 0 0 0 0.25 0"/>
<feBlend mode="normal" in2="BackgroundImageFix" result="effect1_dropShadow_275_3015"/>
<feBlend mode="normal" in="SourceGraphic" in2="effect1_dropShadow_275_3015" result="shape"/>
</filter>
<filter id="filter1_d_275_3015" x="75.8379" y="7.64477" width="23.7129" height="30.7293" filterUnits="userSpaceOnUse" color-interpolation-filters="sRGB">
<feFlood flood-opacity="0" result="BackgroundImageFix"/>
<feColorMatrix in="SourceAlpha" type="matrix" values="0 0 0 0 0 0 0 0 0 0 0 0 0 0 0 0 0 0 127 0" result="hardAlpha"/>
<feOffset dy="2.51711"/>
<feGaussianBlur stdDeviation="1.25856"/>
<feComposite in2="hardAlpha" operator="out"/>
<feColorMatrix type="matrix" values="0 0 0 0 0 0 0 0 0 0 0 0 0 0 0 0 0 0 0.25 0"/>
<feBlend mode="normal" in2="BackgroundImageFix" result="effect1_dropShadow_275_3015"/>
<feBlend mode="normal" in="SourceGraphic" in2="effect1_dropShadow_275_3015" result="shape"/>
</filter>
<filter id="filter2_d_275_3015" x="95.8691" y="9.23277" width="19.5098" height="30.5512" filterUnits="userSpaceOnUse" color-interpolation-filters="sRGB">
<feFlood flood-opacity="0" result="BackgroundImageFix"/>
<feColorMatrix in="SourceAlpha" type="matrix" values="0 0 0 0 0 0 0 0 0 0 0 0 0 0 0 0 0 0 127 0" result="hardAlpha"/>
<feOffset dy="2.51711"/>
<feGaussianBlur stdDeviation="1.25856"/>
<feComposite in2="hardAlpha" operator="out"/>
<feColorMatrix type="matrix" values="0 0 0 0 0 0 0 0 0 0 0 0 0 0 0 0 0 0 0.25 0"/>
<feBlend mode="normal" in2="BackgroundImageFix" result="effect1_dropShadow_275_3015"/>
<feBlend mode="normal" in="SourceGraphic" in2="effect1_dropShadow_275_3015" result="shape"/>
</filter>
<filter id="filter3_d_275_3015" x="3.05955" y="12.3174" width="18.8946" height="28.4368" filterUnits="userSpaceOnUse" color-interpolation-filters="sRGB">
<feFlood flood-opacity="0" result="BackgroundImageFix"/>
<feColorMatrix in="SourceAlpha" type="matrix" values="0 0 0 0 0 0 0 0 0 0 0 0 0 0 0 0 0 0 127 0" result="hardAlpha"/>
<feOffset dy="2.51711"/>
<feGaussianBlur stdDeviation="1.25856"/>
<feComposite in2="hardAlpha" operator="out"/>
<feColorMatrix type="matrix" values="0 0 0 0 0 0 0 0 0 0 0 0 0 0 0 0 0 0 0.25 0"/>
<feBlend mode="normal" in2="BackgroundImageFix" result="effect1_dropShadow_275_3015"/>
<feBlend mode="normal" in="SourceGraphic" in2="effect1_dropShadow_275_3015" result="shape"/>
</filter>
<filter id="filter4_d_275_3015" x="15.6245" y="6.29839" width="30.3545" height="32.136" filterUnits="userSpaceOnUse" color-interpolation-filters="sRGB">
<feFlood flood-opacity="0" result="BackgroundImageFix"/>
<feColorMatrix in="SourceAlpha" type="matrix" values="0 0 0 0 0 0 0 0 0 0 0 0 0 0 0 0 0 0 127 0" result="hardAlpha"/>
<feOffset dy="2.51711"/>
<feGaussianBlur stdDeviation="1.25856"/>
<feComposite in2="hardAlpha" operator="out"/>
<feColorMatrix type="matrix" values="0 0 0 0 0 0 0 0 0 0 0 0 0 0 0 0 0 0 0.25 0"/>
<feBlend mode="normal" in2="BackgroundImageFix" result="effect1_dropShadow_275_3015"/>
<feBlend mode="normal" in="SourceGraphic" in2="effect1_dropShadow_275_3015" result="shape"/>
</filter>
<filter id="filter5_d_275_3015" x="38.1992" y="14.2426" width="10.6543" height="8.60788" filterUnits="userSpaceOnUse" color-interpolation-filters="sRGB">
<feFlood flood-opacity="0" result="BackgroundImageFix"/>
<feColorMatrix in="SourceAlpha" type="matrix" values="0 0 0 0 0 0 0 0 0 0 0 0 0 0 0 0 0 0 127 0" result="hardAlpha"/>
<feOffset dy="2.51711"/>
<feGaussianBlur stdDeviation="1.25856"/>
<feComposite in2="hardAlpha" operator="out"/>
<feColorMatrix type="matrix" values="0 0 0 0 0 0 0 0 0 0 0 0 0 0 0 0 0 0 0.25 0"/>
<feBlend mode="normal" in2="BackgroundImageFix" result="effect1_dropShadow_275_3015"/>
<feBlend mode="normal" in="SourceGraphic" in2="effect1_dropShadow_275_3015" result="shape"/>
</filter>
<filter id="filter6_d_275_3015" x="38.6968" y="20.1906" width="9.82036" height="10.0741" filterUnits="userSpaceOnUse" color-interpolation-filters="sRGB">
<feFlood flood-opacity="0" result="BackgroundImageFix"/>
<feColorMatrix in="SourceAlpha" type="matrix" values="0 0 0 0 0 0 0 0 0 0 0 0 0 0 0 0 0 0 127 0" result="hardAlpha"/>
<feOffset dy="2.51711"/>
<feGaussianBlur stdDeviation="1.25856"/>
<feComposite in2="hardAlpha" operator="out"/>
<feColorMatrix type="matrix" values="0 0 0 0 0 0 0 0 0 0 0 0 0 0 0 0 0 0 0.25 0"/>
<feBlend mode="normal" in2="BackgroundImageFix" result="effect1_dropShadow_275_3015"/>
<feBlend mode="normal" in="SourceGraphic" in2="effect1_dropShadow_275_3015" result="shape"/>
</filter>
<filter id="filter7_d_275_3015" x="36.396" y="8.93533" width="9.58891" height="13.0765" filterUnits="userSpaceOnUse" color-interpolation-filters="sRGB">
<feFlood flood-opacity="0" result="BackgroundImageFix"/>
<feColorMatrix in="SourceAlpha" type="matrix" values="0 0 0 0 0 0 0 0 0 0 0 0 0 0 0 0 0 0 127 0" result="hardAlpha"/>
<feOffset dy="2.51711"/>
<feGaussianBlur stdDeviation="1.25856"/>
<feComposite in2="hardAlpha" operator="out"/>
<feColorMatrix type="matrix" values="0 0 0 0 0 0 0 0 0 0 0 0 0 0 0 0 0 0 0.25 0"/>
<feBlend mode="normal" in2="BackgroundImageFix" result="effect1_dropShadow_275_3015"/>
<feBlend mode="normal" in="SourceGraphic" in2="effect1_dropShadow_275_3015" result="shape"/>
</filter>
<filter id="filter8_d_275_3015" x="30.9419" y="10.7586" width="7.2852" height="10.5162" filterUnits="userSpaceOnUse" color-interpolation-filters="sRGB">
<feFlood flood-opacity="0" result="BackgroundImageFix"/>
<feColorMatrix in="SourceAlpha" type="matrix" values="0 0 0 0 0 0 0 0 0 0 0 0 0 0 0 0 0 0 127 0" result="hardAlpha"/>
<feOffset dy="2.51711"/>
<feGaussianBlur stdDeviation="1.25856"/>
<feComposite in2="hardAlpha" operator="out"/>
<feColorMatrix type="matrix" values="0 0 0 0 0 0 0 0 0 0 0 0 0 0 0 0 0 0 0.25 0"/>
<feBlend mode="normal" in2="BackgroundImageFix" result="effect1_dropShadow_275_3015"/>
<feBlend mode="normal" in="SourceGraphic" in2="effect1_dropShadow_275_3015" result="shape"/>
</filter>
<filter id="filter9_d_275_3015" x="34.0947" y="12.0077" width="7.0562" height="9.09598" filterUnits="userSpaceOnUse" color-interpolation-filters="sRGB">
<feFlood flood-opacity="0" result="BackgroundImageFix"/>
<feColorMatrix in="SourceAlpha" type="matrix" values="0 0 0 0 0 0 0 0 0 0 0 0 0 0 0 0 0 0 127 0" result="hardAlpha"/>
<feOffset dy="2.51711"/>
<feGaussianBlur stdDeviation="1.25856"/>
<feComposite in2="hardAlpha" operator="out"/>
<feColorMatrix type="matrix" values="0 0 0 0 0 0 0 0 0 0 0 0 0 0 0 0 0 0 0.25 0"/>
<feBlend mode="normal" in2="BackgroundImageFix" result="effect1_dropShadow_275_3015"/>
<feBlend mode="normal" in="SourceGraphic" in2="effect1_dropShadow_275_3015" result="shape"/>
</filter>
<filter id="filter10_d_275_3015" x="38.9389" y="18.8902" width="8.58794" height="7.23215" filterUnits="userSpaceOnUse" color-interpolation-filters="sRGB">
<feFlood flood-opacity="0" result="BackgroundImageFix"/>
<feColorMatrix in="SourceAlpha" type="matrix" values="0 0 0 0 0 0 0 0 0 0 0 0 0 0 0 0 0 0 127 0" result="hardAlpha"/>
<feOffset dy="2.51711"/>
<feGaussianBlur stdDeviation="1.25856"/>
<feComposite in2="hardAlpha" operator="out"/>
<feColorMatrix type="matrix" values="0 0 0 0 0 0 0 0 0 0 0 0 0 0 0 0 0 0 0.25 0"/>
<feBlend mode="normal" in2="BackgroundImageFix" result="effect1_dropShadow_275_3015"/>
<feBlend mode="normal" in="SourceGraphic" in2="effect1_dropShadow_275_3015" result="shape"/>
</filter>
<filter id="filter11_d_275_3015" x="16.6347" y="25.6399" width="11.0879" height="14.366" filterUnits="userSpaceOnUse" color-interpolation-filters="sRGB">
<feFlood flood-opacity="0" result="BackgroundImageFix"/>
<feColorMatrix in="SourceAlpha" type="matrix" values="0 0 0 0 0 0 0 0 0 0 0 0 0 0 0 0 0 0 127 0" result="hardAlpha"/>
<feOffset dy="2.51711"/>
<feGaussianBlur stdDeviation="1.25856"/>
<feComposite in2="hardAlpha" operator="out"/>
<feColorMatrix type="matrix" values="0 0 0 0 0 0 0 0 0 0 0 0 0 0 0 0 0 0 0.25 0"/>
<feBlend mode="normal" in2="BackgroundImageFix" result="effect1_dropShadow_275_3015"/>
<feBlend mode="normal" in="SourceGraphic" in2="effect1_dropShadow_275_3015" result="shape"/>
</filter>
<filter id="filter12_d_275_3015" x="32.2446" y="16.1502" width="11.8204" height="11.1255" filterUnits="userSpaceOnUse" color-interpolation-filters="sRGB">
<feFlood flood-opacity="0" result="BackgroundImageFix"/>
<feColorMatrix in="SourceAlpha" type="matrix" values="0 0 0 0 0 0 0 0 0 0 0 0 0 0 0 0 0 0 127 0" result="hardAlpha"/>
<feOffset dy="2.51711"/>
<feGaussianBlur stdDeviation="1.25856"/>
<feComposite in2="hardAlpha" operator="out"/>
<feColorMatrix type="matrix" values="0 0 0 0 0 0 0 0 0 0 0 0 0 0 0 0 0 0 0.25 0"/>
<feBlend mode="normal" in2="BackgroundImageFix" result="effect1_dropShadow_275_3015"/>
<feBlend mode="normal" in="SourceGraphic" in2="effect1_dropShadow_275_3015" result="shape"/>
</filter>
<filter id="filter13_d_275_3015" x="40.3178" y="6.6778" width="25.316" height="29.7188" filterUnits="userSpaceOnUse" color-interpolation-filters="sRGB">
<feFlood flood-opacity="0" result="BackgroundImageFix"/>
<feColorMatrix in="SourceAlpha" type="matrix" values="0 0 0 0 0 0 0 0 0 0 0 0 0 0 0 0 0 0 127 0" result="hardAlpha"/>
<feOffset dy="2.51711"/>
<feGaussianBlur stdDeviation="1.25856"/>
<feComposite in2="hardAlpha" operator="out"/>
<feColorMatrix type="matrix" values="0 0 0 0 0 0 0 0 0 0 0 0 0 0 0 0 0 0 0.25 0"/>
<feBlend mode="normal" in2="BackgroundImageFix" result="effect1_dropShadow_275_3015"/>
<feBlend mode="normal" in="SourceGraphic" in2="effect1_dropShadow_275_3015" result="shape"/>
</filter>
<linearGradient id="paint0_linear_275_3015" x1="71.423" y1="12.234" x2="71.4444" y2="21.5242" gradientUnits="userSpaceOnUse">
<stop stop-color="#FDFFE0"/>
<stop offset="0.535" stop-color="#F7CA7F"/>
<stop offset="1" stop-color="#F4B45A"/>
</linearGradient>
<linearGradient id="paint1_linear_275_3015" x1="77.0933" y1="7.26345" x2="65.4425" y2="8.12155" gradientUnits="userSpaceOnUse">
<stop stop-color="#AA823D"/>
<stop offset="0.699511" stop-color="#EFE288"/>
<stop offset="1" stop-color="#D1B85A"/>
</linearGradient>
<linearGradient id="paint2_linear_275_3015" x1="88.1379" y1="12.9045" x2="88.1536" y2="22.5542" gradientUnits="userSpaceOnUse">
<stop stop-color="#FDFFE0"/>
<stop offset="0.535" stop-color="#F7CA7F"/>
<stop offset="1" stop-color="#F4B45A"/>
</linearGradient>
<linearGradient id="paint3_linear_275_3015" x1="96.4934" y1="7.74155" x2="79.4187" y2="9.52559" gradientUnits="userSpaceOnUse">
<stop stop-color="#AA823D"/>
<stop offset="0.699511" stop-color="#EFE288"/>
<stop offset="1" stop-color="#D1B85A"/>
</linearGradient>
<linearGradient id="paint4_linear_275_3015" x1="105.96" y1="14.4771" x2="105.981" y2="24.0406" gradientUnits="userSpaceOnUse">
<stop stop-color="#FDFFE0"/>
<stop offset="0.535" stop-color="#F7CA7F"/>
<stop offset="1" stop-color="#F4B45A"/>
</linearGradient>
<linearGradient id="paint5_linear_275_3015" x1="112.303" y1="9.36026" x2="99.284" y2="10.4021" gradientUnits="userSpaceOnUse">
<stop stop-color="#AA823D"/>
<stop offset="0.699511" stop-color="#EFE288"/>
<stop offset="1" stop-color="#D1B85A"/>
</linearGradient>
<linearGradient id="paint6_linear_275_3015" x1="12.8426" y1="17.1871" x2="12.8604" y2="25.9372" gradientUnits="userSpaceOnUse">
<stop stop-color="#FDFFE0"/>
<stop offset="0.535" stop-color="#F7CA7F"/>
<stop offset="1" stop-color="#F4B45A"/>
</linearGradient>
<linearGradient id="paint7_linear_275_3015" x1="18.8731" y1="12.5054" x2="6.50061" y2="13.5344" gradientUnits="userSpaceOnUse">
<stop stop-color="#AA823D"/>
<stop offset="0.699511" stop-color="#EFE288"/>
<stop offset="1" stop-color="#D1B85A"/>
</linearGradient>
<linearGradient id="paint8_linear_275_3015" x1="31.2558" y1="11.82" x2="31.2687" y2="22.0478" gradientUnits="userSpaceOnUse">
<stop stop-color="#FDFFE0"/>
<stop offset="0.535" stop-color="#F7CA7F"/>
<stop offset="1" stop-color="#F4B45A"/>
</linearGradient>
<linearGradient id="paint9_linear_275_3015" x1="42.6336" y1="6.34772" x2="19.5449" y2="9.44706" gradientUnits="userSpaceOnUse">
<stop stop-color="#AA823D"/>
<stop offset="0.699511" stop-color="#EFE288"/>
<stop offset="1" stop-color="#D1B85A"/>
</linearGradient>
<linearGradient id="paint10_linear_275_3015" x1="43.6461" y1="15.3372" x2="43.6466" y2="16.2653" gradientUnits="userSpaceOnUse">
<stop stop-color="#FDFFE0"/>
<stop offset="0.535" stop-color="#F7CA7F"/>
<stop offset="1" stop-color="#F4B45A"/>
</linearGradient>
<linearGradient id="paint11_linear_275_3015" x1="43.6625" y1="21.5848" x2="43.6643" y2="23.0034" gradientUnits="userSpaceOnUse">
<stop stop-color="#FDFFE0"/>
<stop offset="0.535" stop-color="#F7CA7F"/>
<stop offset="1" stop-color="#F4B45A"/>
</linearGradient>
<linearGradient id="paint12_linear_275_3015" x1="41.2688" y1="10.9701" x2="41.2749" y2="13.579" gradientUnits="userSpaceOnUse">
<stop stop-color="#FDFFE0"/>
<stop offset="0.535" stop-color="#F7CA7F"/>
<stop offset="1" stop-color="#F4B45A"/>
</linearGradient>
<linearGradient id="paint13_linear_275_3015" x1="34.6172" y1="12.0582" x2="34.6236" y2="13.7029" gradientUnits="userSpaceOnUse">
<stop stop-color="#FDFFE0"/>
<stop offset="0.535" stop-color="#F7CA7F"/>
<stop offset="1" stop-color="#F4B45A"/>
</linearGradient>
<linearGradient id="paint14_linear_275_3015" x1="37.6705" y1="13.0865" x2="37.6747" y2="14.266" gradientUnits="userSpaceOnUse">
<stop stop-color="#FDFFE0"/>
<stop offset="0.535" stop-color="#F7CA7F"/>
<stop offset="1" stop-color="#F4B45A"/>
</linearGradient>
<linearGradient id="paint15_linear_275_3015" x1="43.339" y1="19.6232" x2="43.3392" y2="20.1162" gradientUnits="userSpaceOnUse">
<stop stop-color="#FDFFE0"/>
<stop offset="0.535" stop-color="#F7CA7F"/>
<stop offset="1" stop-color="#F4B45A"/>
</linearGradient>
<linearGradient id="paint16_linear_275_3015" x1="22.3096" y1="28.0027" x2="22.3152" y2="31.1159" gradientUnits="userSpaceOnUse">
<stop stop-color="#FDFFE0"/>
<stop offset="0.535" stop-color="#F7CA7F"/>
<stop offset="1" stop-color="#F4B45A"/>
</linearGradient>
<linearGradient id="paint17_linear_275_3015" x1="24.7134" y1="26.337" x2="19.7902" y2="26.7957" gradientUnits="userSpaceOnUse">
<stop stop-color="#AA823D"/>
<stop offset="0.699511" stop-color="#EFE288"/>
<stop offset="1" stop-color="#D1B85A"/>
</linearGradient>
<linearGradient id="paint18_linear_275_3015" x1="38.3045" y1="17.6254" x2="38.3065" y2="19.6262" gradientUnits="userSpaceOnUse">
<stop stop-color="#FDFFE0"/>
<stop offset="0.535" stop-color="#F7CA7F"/>
<stop offset="1" stop-color="#F4B45A"/>
</linearGradient>
<linearGradient id="paint19_linear_275_3015" x1="41.0554" y1="16.5549" x2="35.5247" y2="17.4725" gradientUnits="userSpaceOnUse">
<stop stop-color="#AA823D"/>
<stop offset="0.699511" stop-color="#EFE288"/>
<stop offset="1" stop-color="#D1B85A"/>
</linearGradient>
<linearGradient id="paint20_linear_275_3015" x1="53.5099" y1="11.7273" x2="53.5232" y2="20.9955" gradientUnits="userSpaceOnUse">
<stop stop-color="#FDFFE0"/>
<stop offset="0.535" stop-color="#F7CA7F"/>
<stop offset="1" stop-color="#F4B45A"/>
</linearGradient>
<linearGradient id="paint21_linear_275_3015" x1="62.5906" y1="6.76851" x2="44.09" y2="8.9558" gradientUnits="userSpaceOnUse">
<stop stop-color="#AA823D"/>
<stop offset="0.699511" stop-color="#EFE288"/>
<stop offset="1" stop-color="#D1B85A"/>
</linearGradient>
</defs>
</svg>
